PathFileType	4	(X/Y/Z)	 s08c0302.trc
DataRate	CameraRate	NumFrames	NumMarkers	Units	OrigDataRate	OrigDataStartFrame	OrigNumFrames
200	200	5	50	mm	200	1001	2000
Frame#	Time	racr			lacr			c7			jug			rlel			rdr			llel			ldr			s2			lic			ric			lasi			rasi			rpsi			lpsi			rgt			lgt			rth1			rth2			rth3			rth4			rlfc			rmfc			rsh1			rsh2			rsh3			rsh4			rlmal			rmmal			rcal			rtoe			rmt5			lth1			lth2			lth4			lth3			llfc			lmfc			llmal			lmmal			lcal			lmt5			lsh1			lsh2			lsh3			lsh4			ltoe			SBIKE			LBIKE			RBIKE			
		X1	Y1	Z1	X2	Y2	Z2	X3	Y3	Z3	X4	Y4	Z4	X5	Y5	Z5	X6	Y6	Z6	X7	Y7	Z7	X8	Y8	Z8	X9	Y9	Z9	X10	Y10	Z10	X11	Y11	Z11	X12	Y12	Z12	X13	Y13	Z13	X14	Y14	Z14	X15	Y15	Z15	X16	Y16	Z16	X17	Y17	Z17	X18	Y18	Z18	X19	Y19	Z19	X20	Y20	Z20	X21	Y21	Z21	X22	Y22	Z22	X23	Y23	Z23	X24	Y24	Z24	X25	Y25	Z25	X26	Y26	Z26	X27	Y27	Z27	X28	Y28	Z28	X29	Y29	Z29	X30	Y30	Z30	X31	Y31	Z31	X32	Y32	Z32	X33	Y33	Z33	X34	Y34	Z34	X35	Y35	Z35	X36	Y36	Z36	X37	Y37	Z37	X38	Y38	Z38	X39	Y39	Z39	X40	Y40	Z40	X41	Y41	Z41	X42	Y42	Z42	X43	Y43	Z43	X44	Y44	Z44	X45	Y45	Z45	X46	Y46	Z46	X47	Y47	Z47	X48	Y48	Z48	X49	Y49	Z49	X50	Y50	Z50	
1001	5.0050	806.175903	1420.144478	-65.456558	837.502934	1372.402463	-392.995580	796.213341	1454.374111	-238.024408	760.297259	1295.171264	-214.709677	728.151327	1163.629890	47.946259	802.671825	887.223766	-34.239255	700.238771	1130.728742	-508.168233	810.419100	900.904857	-410.149453	234.537622	1227.442773	-206.670050	403.339375	1184.176699	-351.985747	402.425150	1252.629884	-48.309702	417.600964	1135.726694	-311.072769	417.884385	1181.344850	-75.740207	268.605826	1271.020318	-162.398812	271.080076	1259.434503	-257.706594	319.434933	1135.809020	1.994298	314.426750	1077.757148	-368.267114	445.380126	1006.256448	0.334538	520.105859	958.747165	-10.699727	559.281975	882.077963	-22.063290	544.777476	983.176113	-22.350128	613.767070	789.294573	-47.810454	593.023445	791.272473	-159.954536	496.136776	741.369006	-19.944549	433.872855	679.617358	-40.743309	350.393485	657.468128	-45.323353	451.449390	658.294660	-70.194219	241.987387	605.614243	-52.879069	270.068699	607.386992	-140.282691	177.913626	655.473408	-99.893848	317.902287	390.589233	-101.530450	248.560414	454.005097	-33.540075	343.797614	950.478600	-383.738824	382.928390	872.575890	-383.633877	417.587061	879.339920	-374.319763	377.360320	783.694612	-384.980714	389.324016	659.302372	-368.346160	376.415115	632.306912	-270.612662	252.482950	263.703732	-393.522466	297.037731	286.660675	-321.674510	184.892509	256.426567	-357.919916	371.349055	147.325208	-412.149357	344.481815	539.271732	-403.766576	339.187869	453.484710	-389.745799	294.124356	377.948670	-394.871024	359.809233	448.968202	-355.460954	457.168896	159.100118	-342.851586	-141.903968	937.972319	-220.960408	16.632693	83.282373	-424.160738	9.889532	80.435846	-26.384316	
1002	5.0100	803.806548	1422.466222	-60.765470	838.559248	1376.331088	-387.597494	795.871302	1457.192136	-232.987866	758.311200	1297.983797	-211.238681	727.503007	1164.121586	49.296375	802.903616	887.628568	-34.305788	705.358675	1134.132818	-506.014228	811.664568	900.788216	-409.471876	235.000612	1226.732219	-211.159271	407.158500	1183.311862	-352.861752	399.428204	1254.444448	-50.109666	420.165636	1133.730695	-311.991738	416.804549	1183.730912	-76.550493	268.536668	1270.894446	-167.679529	271.931698	1258.458303	-262.030089	317.634088	1137.527184	-0.141170	315.854186	1077.001511	-369.731175	446.464296	1010.676569	-0.482205	522.380927	964.697059	-10.206155	562.623967	888.450670	-21.479326	546.390908	989.435860	-22.347897	619.400458	796.505521	-46.800105	599.229572	797.942373	-159.103915	502.358660	748.017910	-19.243294	441.003144	685.738354	-40.007385	357.641464	663.313312	-44.847127	458.825541	664.398911	-69.135954	249.237799	609.994363	-52.897752	277.464675	612.327000	-140.170516	184.153755	658.753355	-99.953937	329.279374	397.617312	-100.460448	258.448524	458.623073	-33.601163	342.517871	949.645412	-385.263022	379.861206	870.818737	-385.124733	414.549842	876.802244	-375.513902	372.281689	782.096477	-386.824528	381.122619	657.278017	-369.768761	367.732200	630.661265	-272.197113	244.775484	261.687742	-394.328615	289.705070	284.551056	-322.863651	177.752248	255.901484	-358.856322	362.166173	142.943109	-412.189699	335.876457	537.546895	-405.286468	330.895340	451.684149	-391.307561	285.999098	375.988144	-396.279037	351.607170	447.036939	-357.010037	447.943152	153.127653	-342.512507	-142.036408	937.931360	-221.056590	16.633002	83.256751	-424.172148	9.884095	80.458606	-26.397712	
1003	5.0150	801.575183	1424.554114	-56.036250	839.715798	1380.901768	-384.868237	795.835050	1460.345955	-228.078918	755.971027	1301.254672	-208.388121	727.050969	1164.579705	50.383346	804.274186	888.004391	-32.698110	711.352164	1137.712428	-502.886597	812.923502	900.535948	-408.622719	235.642595	1226.624520	-215.419082	410.757139	1183.186635	-353.953057	395.881384	1257.075042	-51.555840	422.520981	1132.891033	-313.361074	415.760081	1186.444605	-77.714339	269.008106	1271.029944	-170.524813	273.334437	1258.123732	-266.415806	316.658405	1139.837364	-2.232491	317.131903	1076.682968	-371.319516	447.336487	1015.316873	-1.486118	523.953797	970.293695	-10.510440	566.082279	895.174116	-20.076292	547.969716	995.614928	-21.968542	624.675666	803.933013	-45.368972	605.098980	804.603778	-158.120487	508.757633	754.326774	-18.424478	447.811240	691.631995	-39.320687	364.666294	668.596245	-44.220091	466.628708	669.576972	-68.400063	256.397908	613.556761	-52.895338	284.948501	616.547485	-139.975786	190.339687	661.322217	-99.969572	339.932111	402.025972	-101.746945	268.220456	462.577113	-33.768001	341.378935	949.359250	-387.045346	376.918264	869.796810	-386.900656	411.554952	874.781048	-376.919696	367.387498	781.285568	-389.138615	373.097092	656.047364	-371.365296	359.269196	630.129795	-273.815068	237.178850	260.394811	-395.212746	282.395172	282.947713	-324.051521	170.811978	256.283235	-359.857062	352.812835	139.046943	-412.178246	327.360616	536.373604	-406.924377	322.616341	450.613689	-393.055916	277.812363	374.846397	-397.699054	343.366394	446.272430	-359.044346	438.531451	147.499945	-342.252463	-142.153162	937.967692	-221.240632	16.632482	83.261792	-424.190926	9.867331	80.541279	-26.368407	
1004	5.0200	799.426813	1426.633575	-51.290914	846.633639	1387.133581	-387.638870	795.557201	1462.897013	-223.184226	761.619058	1302.008081	-205.591484	726.805277	1165.050558	51.345175	804.559225	888.510870	-32.926163	716.036185	1141.177750	-500.610011	815.055118	897.703877	-405.613614	236.490017	1226.942573	-219.620868	414.118587	1183.863349	-355.030981	393.022705	1259.562425	-53.251617	424.567189	1132.717850	-314.537885	415.076459	1189.415964	-79.059971	268.130762	1271.246407	-175.670531	274.860862	1258.302619	-270.534546	316.134388	1142.726397	-4.289286	318.443010	1076.772078	-373.076757	448.104291	1019.998096	-2.568798	525.530439	976.456021	-10.294442	568.903562	901.566087	-18.822755	549.071627	1001.787473	-22.472781	629.388059	811.231519	-43.923850	610.552731	811.330542	-157.253328	514.713322	760.273100	-17.542923	454.506096	696.952639	-38.540707	371.530107	673.086774	-43.663781	472.800932	675.485190	-67.300557	263.720488	616.336422	-52.763774	292.964001	619.538530	-139.279861	196.547999	663.056378	-100.077300	351.365996	406.916317	-101.878509	278.473899	466.007899	-33.713109	340.272613	949.780184	-389.369039	374.118121	869.298914	-388.935837	408.726643	873.481547	-378.549260	362.173824	780.813817	-391.732200	365.318521	655.527854	-373.147775	351.899689	629.447510	-275.375044	229.760322	259.829980	-396.079988	274.980405	282.392781	-324.956489	164.131719	257.737025	-360.802656	343.302983	135.980797	-412.345014	318.571026	535.742378	-407.584291	314.458850	450.371629	-394.814321	269.789328	374.494623	-399.284561	335.340235	446.059817	-360.935701	428.966719	142.193585	-341.967230	-142.167763	937.967462	-221.422088	16.622579	83.257030	-424.209156	9.853656	80.563822	-26.357267	
1005	5.0250	797.412420	1428.696102	-46.655501	846.854194	1390.919562	-382.602447	795.153732	1465.371217	-218.431433	759.319163	1304.552120	-202.210326	726.735093	1165.435367	52.356489	803.659821	889.111570	-35.757169	719.627475	1144.180537	-499.104273	816.552267	898.011128	-405.851086	237.557565	1227.862448	-223.468275	417.231308	1184.862256	-356.144306	390.642037	1262.318796	-55.119237	426.596111	1133.076865	-315.491769	415.105377	1192.611263	-80.448045	268.296137	1272.569544	-180.248950	276.523933	1258.909618	-274.540937	315.989524	1146.058861	-6.405361	319.803671	1077.365303	-375.016095	448.797867	1024.763938	-3.754457	526.739527	982.160710	-10.321485	571.005527	907.906449	-17.975508	549.811868	1007.694607	-23.214642	633.683209	818.231806	-42.556516	615.733991	817.798842	-156.203559	520.224710	765.792403	-16.717296	460.433006	701.862465	-38.050175	378.164057	676.855477	-43.069124	479.039154	680.294178	-66.734495	270.957765	618.557480	-52.603929	300.060735	622.355329	-139.214730	202.192769	663.906779	-100.417944	362.908371	411.281323	-101.853562	288.776144	468.775347	-33.647284	339.351715	950.649518	-391.452217	371.547739	869.474817	-391.188668	406.156413	872.883112	-380.360095	358.084071	781.449539	-394.627493	357.862351	655.776684	-375.101672	344.649907	629.291195	-276.709912	222.532339	260.135371	-396.839587	267.988209	282.387713	-325.964679	157.730050	260.125196	-361.534544	333.654004	133.298706	-412.360176	310.305694	536.126799	-409.141887	306.488849	450.972285	-396.608717	261.921134	374.972129	-400.913582	327.607438	446.587955	-362.811147	419.207924	137.261525	-341.810054	-142.234414	937.943060	-221.382412	16.629985	83.297137	-424.232568	9.869732	80.579611	-26.356554	
